<?xml version="1.0" encoding="UTF-8" standalone="no"?>
<!DOCTYPE svg PUBLIC "-//W3C//DTD SVG 1.1//EN"
 "http://www.w3.org/Graphics/SVG/1.1/DTD/svg11.dtd">
<!-- Generated by graphviz version 2.40.1 (20161225.0304)
 -->
<!-- Title: RGL__DirectedAdjacencyGraph Pages: 1 -->
<svg width="566pt" height="1340pt"
 viewBox="0.00 0.00 566.00 1340.00" xmlns="http://www.w3.org/2000/svg" xmlns:xlink="http://www.w3.org/1999/xlink">
<g id="graph0" class="graph" transform="scale(1 1) rotate(0) translate(4 1336)">
<title>RGL__DirectedAdjacencyGraph</title>
<polygon fill="#ffffff" stroke="transparent" points="-4,4 -4,-1336 562,-1336 562,4 -4,4"/>
<!-- p3 -->
<g id="node1" class="node">
<title>p3</title>
<ellipse fill="none" stroke="#000000" cx="315" cy="-90" rx="27" ry="18"/>
<text text-anchor="middle" x="315" y="-87.6" font-family="Times,serif" font-size="8.00" fill="#000000">p3</text>
</g>
<!-- d1 -->
<g id="node2" class="node">
<title>d1</title>
<ellipse fill="none" stroke="#000000" cx="315" cy="-18" rx="27" ry="18"/>
<text text-anchor="middle" x="315" y="-15.6" font-family="Times,serif" font-size="8.00" fill="#000000">d1</text>
</g>
<!-- p3&#45;&gt;d1 -->
<g id="edge1" class="edge">
<title>p3&#45;&gt;d1</title>
<path fill="none" stroke="#000000" d="M315,-71.8314C315,-64.131 315,-54.9743 315,-46.4166"/>
<polygon fill="#000000" stroke="#000000" points="318.5001,-46.4132 315,-36.4133 311.5001,-46.4133 318.5001,-46.4132"/>
</g>
<!-- p4 -->
<g id="node3" class="node">
<title>p4</title>
<ellipse fill="none" stroke="#000000" cx="387" cy="-1242" rx="27" ry="18"/>
<text text-anchor="middle" x="387" y="-1239.6" font-family="Times,serif" font-size="8.00" fill="#000000">p4</text>
</g>
<!-- d3 -->
<g id="node4" class="node">
<title>d3</title>
<ellipse fill="none" stroke="#000000" cx="387" cy="-1170" rx="27" ry="18"/>
<text text-anchor="middle" x="387" y="-1167.6" font-family="Times,serif" font-size="8.00" fill="#000000">d3</text>
</g>
<!-- p4&#45;&gt;d3 -->
<g id="edge2" class="edge">
<title>p4&#45;&gt;d3</title>
<path fill="none" stroke="#000000" d="M387,-1223.8314C387,-1216.131 387,-1206.9743 387,-1198.4166"/>
<polygon fill="#000000" stroke="#000000" points="390.5001,-1198.4132 387,-1188.4133 383.5001,-1198.4133 390.5001,-1198.4132"/>
</g>
<!-- p5 -->
<g id="node5" class="node">
<title>p5</title>
<ellipse fill="none" stroke="#000000" cx="288" cy="-234" rx="27" ry="18"/>
<text text-anchor="middle" x="288" y="-231.6" font-family="Times,serif" font-size="8.00" fill="#000000">p5</text>
</g>
<!-- d2 -->
<g id="node6" class="node">
<title>d2</title>
<ellipse fill="none" stroke="#000000" cx="315" cy="-162" rx="27" ry="18"/>
<text text-anchor="middle" x="315" y="-159.6" font-family="Times,serif" font-size="8.00" fill="#000000">d2</text>
</g>
<!-- p5&#45;&gt;d2 -->
<g id="edge3" class="edge">
<title>p5&#45;&gt;d2</title>
<path fill="none" stroke="#000000" d="M294.6742,-216.2022C297.7476,-208.0064 301.4616,-198.1024 304.8695,-189.0145"/>
<polygon fill="#000000" stroke="#000000" points="308.1685,-190.1853 308.4026,-179.593 301.6142,-187.7274 308.1685,-190.1853"/>
</g>
<!-- d2&#45;&gt;p3 -->
<g id="edge4" class="edge">
<title>d2&#45;&gt;p3</title>
<path fill="none" stroke="#000000" d="M315,-143.8314C315,-136.131 315,-126.9743 315,-118.4166"/>
<polygon fill="#000000" stroke="#000000" points="318.5001,-118.4132 315,-108.4133 311.5001,-118.4133 318.5001,-118.4132"/>
</g>
<!-- p6 -->
<g id="node7" class="node">
<title>p6</title>
<ellipse fill="none" stroke="#000000" cx="216" cy="-378" rx="27" ry="18"/>
<text text-anchor="middle" x="216" y="-375.6" font-family="Times,serif" font-size="8.00" fill="#000000">p6</text>
</g>
<!-- d5 -->
<g id="node8" class="node">
<title>d5</title>
<ellipse fill="none" stroke="#000000" cx="288" cy="-306" rx="27" ry="18"/>
<text text-anchor="middle" x="288" y="-303.6" font-family="Times,serif" font-size="8.00" fill="#000000">d5</text>
</g>
<!-- p6&#45;&gt;d5 -->
<g id="edge5" class="edge">
<title>p6&#45;&gt;d5</title>
<path fill="none" stroke="#000000" d="M231.2693,-362.7307C241.197,-352.803 254.3153,-339.6847 265.4363,-328.5637"/>
<polygon fill="#000000" stroke="#000000" points="268.1564,-330.7933 272.7527,-321.2473 263.2067,-325.8436 268.1564,-330.7933"/>
</g>
<!-- d5&#45;&gt;p5 -->
<g id="edge6" class="edge">
<title>d5&#45;&gt;p5</title>
<path fill="none" stroke="#000000" d="M288,-287.8314C288,-280.131 288,-270.9743 288,-262.4166"/>
<polygon fill="#000000" stroke="#000000" points="291.5001,-262.4132 288,-252.4133 284.5001,-262.4133 291.5001,-262.4132"/>
</g>
<!-- p7 -->
<g id="node9" class="node">
<title>p7</title>
<ellipse fill="none" stroke="#000000" cx="288" cy="-378" rx="27" ry="18"/>
<text text-anchor="middle" x="288" y="-375.6" font-family="Times,serif" font-size="8.00" fill="#000000">p7</text>
</g>
<!-- p7&#45;&gt;d5 -->
<g id="edge7" class="edge">
<title>p7&#45;&gt;d5</title>
<path fill="none" stroke="#000000" d="M288,-359.8314C288,-352.131 288,-342.9743 288,-334.4166"/>
<polygon fill="#000000" stroke="#000000" points="291.5001,-334.4132 288,-324.4133 284.5001,-334.4133 291.5001,-334.4132"/>
</g>
<!-- p8 -->
<g id="node10" class="node">
<title>p8</title>
<ellipse fill="none" stroke="#000000" cx="288" cy="-522" rx="27" ry="18"/>
<text text-anchor="middle" x="288" y="-519.6" font-family="Times,serif" font-size="8.00" fill="#000000">p8</text>
</g>
<!-- d7 -->
<g id="node11" class="node">
<title>d7</title>
<ellipse fill="none" stroke="#000000" cx="288" cy="-450" rx="27" ry="18"/>
<text text-anchor="middle" x="288" y="-447.6" font-family="Times,serif" font-size="8.00" fill="#000000">d7</text>
</g>
<!-- p8&#45;&gt;d7 -->
<g id="edge8" class="edge">
<title>p8&#45;&gt;d7</title>
<path fill="none" stroke="#000000" d="M288,-503.8314C288,-496.131 288,-486.9743 288,-478.4166"/>
<polygon fill="#000000" stroke="#000000" points="291.5001,-478.4132 288,-468.4133 284.5001,-478.4133 291.5001,-478.4132"/>
</g>
<!-- d7&#45;&gt;p7 -->
<g id="edge9" class="edge">
<title>d7&#45;&gt;p7</title>
<path fill="none" stroke="#000000" d="M288,-431.8314C288,-424.131 288,-414.9743 288,-406.4166"/>
<polygon fill="#000000" stroke="#000000" points="291.5001,-406.4132 288,-396.4133 284.5001,-406.4133 291.5001,-406.4132"/>
</g>
<!-- p9 -->
<g id="node12" class="node">
<title>p9</title>
<ellipse fill="none" stroke="#000000" cx="315" cy="-666" rx="27" ry="18"/>
<text text-anchor="middle" x="315" y="-663.6" font-family="Times,serif" font-size="8.00" fill="#000000">p9</text>
</g>
<!-- p9&#45;&gt;d2 -->
<g id="edge10" class="edge">
<title>p9&#45;&gt;d2</title>
<path fill="none" stroke="#000000" d="M320.8016,-648.0328C329.003,-620.9949 343,-568.0975 343,-522 343,-522 343,-522 343,-306 343,-264.9444 331.8974,-218.4951 323.6748,-189.7243"/>
<polygon fill="#000000" stroke="#000000" points="326.9839,-188.5712 320.8016,-179.9672 320.269,-190.5486 326.9839,-188.5712"/>
</g>
<!-- d8 -->
<g id="node13" class="node">
<title>d8</title>
<ellipse fill="none" stroke="#000000" cx="288" cy="-594" rx="27" ry="18"/>
<text text-anchor="middle" x="288" y="-591.6" font-family="Times,serif" font-size="8.00" fill="#000000">d8</text>
</g>
<!-- p9&#45;&gt;d8 -->
<g id="edge11" class="edge">
<title>p9&#45;&gt;d8</title>
<path fill="none" stroke="#000000" d="M308.3258,-648.2022C305.2524,-640.0064 301.5384,-630.1024 298.1305,-621.0145"/>
<polygon fill="#000000" stroke="#000000" points="301.3858,-619.7274 294.5974,-611.593 294.8315,-622.1853 301.3858,-619.7274"/>
</g>
<!-- d8&#45;&gt;p8 -->
<g id="edge12" class="edge">
<title>d8&#45;&gt;p8</title>
<path fill="none" stroke="#000000" d="M288,-575.8314C288,-568.131 288,-558.9743 288,-550.4166"/>
<polygon fill="#000000" stroke="#000000" points="291.5001,-550.4132 288,-540.4133 284.5001,-550.4133 291.5001,-550.4132"/>
</g>
<!-- p11 -->
<g id="node14" class="node">
<title>p11</title>
<ellipse fill="none" stroke="#000000" cx="207" cy="-810" rx="27" ry="18"/>
<text text-anchor="middle" x="207" y="-807.6" font-family="Times,serif" font-size="8.00" fill="#000000">p11</text>
</g>
<!-- d9 -->
<g id="node15" class="node">
<title>d9</title>
<ellipse fill="none" stroke="#000000" cx="315" cy="-738" rx="27" ry="18"/>
<text text-anchor="middle" x="315" y="-735.6" font-family="Times,serif" font-size="8.00" fill="#000000">d9</text>
</g>
<!-- p11&#45;&gt;d9 -->
<g id="edge13" class="edge">
<title>p11&#45;&gt;d9</title>
<path fill="none" stroke="#000000" d="M226.3082,-797.1278C243.3555,-785.763 268.4019,-769.0654 287.5344,-756.3104"/>
<polygon fill="#000000" stroke="#000000" points="289.4799,-759.2199 295.8589,-750.7607 285.5969,-753.3956 289.4799,-759.2199"/>
</g>
<!-- d9&#45;&gt;p9 -->
<g id="edge14" class="edge">
<title>d9&#45;&gt;p9</title>
<path fill="none" stroke="#000000" d="M315,-719.8314C315,-712.131 315,-702.9743 315,-694.4166"/>
<polygon fill="#000000" stroke="#000000" points="318.5001,-694.4132 315,-684.4133 311.5001,-694.4133 318.5001,-694.4132"/>
</g>
<!-- p12 -->
<g id="node16" class="node">
<title>p12</title>
<ellipse fill="none" stroke="#000000" cx="135" cy="-810" rx="27" ry="18"/>
<text text-anchor="middle" x="135" y="-807.6" font-family="Times,serif" font-size="8.00" fill="#000000">p12</text>
</g>
<!-- p12&#45;&gt;d9 -->
<g id="edge15" class="edge">
<title>p12&#45;&gt;d9</title>
<path fill="none" stroke="#000000" d="M156.5278,-798.7766C161.2525,-796.4429 166.2601,-794.0669 171,-792 207.9991,-775.8658 251.5166,-759.9559 280.9513,-749.6317"/>
<polygon fill="#000000" stroke="#000000" points="282.4493,-752.8163 290.7416,-746.2217 280.1468,-746.2058 282.4493,-752.8163"/>
</g>
<!-- p13 -->
<g id="node17" class="node">
<title>p13</title>
<ellipse fill="none" stroke="#000000" cx="27" cy="-954" rx="27" ry="18"/>
<text text-anchor="middle" x="27" y="-951.6" font-family="Times,serif" font-size="8.00" fill="#000000">p13</text>
</g>
<!-- d10 -->
<g id="node18" class="node">
<title>d10</title>
<ellipse fill="none" stroke="#000000" cx="171" cy="-882" rx="27" ry="18"/>
<text text-anchor="middle" x="171" y="-879.6" font-family="Times,serif" font-size="8.00" fill="#000000">d10</text>
</g>
<!-- p13&#45;&gt;d10 -->
<g id="edge16" class="edge">
<title>p13&#45;&gt;d10</title>
<path fill="none" stroke="#000000" d="M48.8705,-943.0647C73.2222,-930.8889 112.762,-911.119 140.2285,-897.3858"/>
<polygon fill="#000000" stroke="#000000" points="142.0165,-900.4049 149.3955,-892.8022 138.886,-894.1439 142.0165,-900.4049"/>
</g>
<!-- d11 -->
<g id="node19" class="node">
<title>d11</title>
<ellipse fill="none" stroke="#000000" cx="99" cy="-882" rx="27" ry="18"/>
<text text-anchor="middle" x="99" y="-879.6" font-family="Times,serif" font-size="8.00" fill="#000000">d11</text>
</g>
<!-- p13&#45;&gt;d11 -->
<g id="edge17" class="edge">
<title>p13&#45;&gt;d11</title>
<path fill="none" stroke="#000000" d="M42.2693,-938.7307C52.197,-928.803 65.3153,-915.6847 76.4363,-904.5637"/>
<polygon fill="#000000" stroke="#000000" points="79.1564,-906.7933 83.7527,-897.2473 74.2067,-901.8436 79.1564,-906.7933"/>
</g>
<!-- d10&#45;&gt;p11 -->
<g id="edge18" class="edge">
<title>d10&#45;&gt;p11</title>
<path fill="none" stroke="#000000" d="M179.7146,-864.5708C183.9597,-856.0807 189.1536,-845.6929 193.8663,-836.2674"/>
<polygon fill="#000000" stroke="#000000" points="197.024,-837.7782 198.3657,-827.2687 190.763,-834.6477 197.024,-837.7782"/>
</g>
<!-- d11&#45;&gt;p12 -->
<g id="edge19" class="edge">
<title>d11&#45;&gt;p12</title>
<path fill="none" stroke="#000000" d="M107.7146,-864.5708C111.9597,-856.0807 117.1536,-845.6929 121.8663,-836.2674"/>
<polygon fill="#000000" stroke="#000000" points="125.024,-837.7782 126.3657,-827.2687 118.763,-834.6477 125.024,-837.7782"/>
</g>
<!-- p14 -->
<g id="node20" class="node">
<title>p14</title>
<ellipse fill="none" stroke="#000000" cx="99" cy="-954" rx="27" ry="18"/>
<text text-anchor="middle" x="99" y="-951.6" font-family="Times,serif" font-size="8.00" fill="#000000">p14</text>
</g>
<!-- p14&#45;&gt;d10 -->
<g id="edge21" class="edge">
<title>p14&#45;&gt;d10</title>
<path fill="none" stroke="#000000" d="M114.2693,-938.7307C124.197,-928.803 137.3153,-915.6847 148.4363,-904.5637"/>
<polygon fill="#000000" stroke="#000000" points="151.1564,-906.7933 155.7527,-897.2473 146.2067,-901.8436 151.1564,-906.7933"/>
</g>
<!-- p14&#45;&gt;d11 -->
<g id="edge20" class="edge">
<title>p14&#45;&gt;d11</title>
<path fill="none" stroke="#000000" d="M99,-935.8314C99,-928.131 99,-918.9743 99,-910.4166"/>
<polygon fill="#000000" stroke="#000000" points="102.5001,-910.4132 99,-900.4133 95.5001,-910.4133 102.5001,-910.4132"/>
</g>
<!-- p15 -->
<g id="node21" class="node">
<title>p15</title>
<ellipse fill="none" stroke="#000000" cx="171" cy="-954" rx="27" ry="18"/>
<text text-anchor="middle" x="171" y="-951.6" font-family="Times,serif" font-size="8.00" fill="#000000">p15</text>
</g>
<!-- p15&#45;&gt;d10 -->
<g id="edge22" class="edge">
<title>p15&#45;&gt;d10</title>
<path fill="none" stroke="#000000" d="M171,-935.8314C171,-928.131 171,-918.9743 171,-910.4166"/>
<polygon fill="#000000" stroke="#000000" points="174.5001,-910.4132 171,-900.4133 167.5001,-910.4133 174.5001,-910.4132"/>
</g>
<!-- p16 -->
<g id="node22" class="node">
<title>p16</title>
<ellipse fill="none" stroke="#000000" cx="315" cy="-810" rx="27" ry="18"/>
<text text-anchor="middle" x="315" y="-807.6" font-family="Times,serif" font-size="8.00" fill="#000000">p16</text>
</g>
<!-- p16&#45;&gt;d9 -->
<g id="edge23" class="edge">
<title>p16&#45;&gt;d9</title>
<path fill="none" stroke="#000000" d="M315,-791.8314C315,-784.131 315,-774.9743 315,-766.4166"/>
<polygon fill="#000000" stroke="#000000" points="318.5001,-766.4132 315,-756.4133 311.5001,-766.4133 318.5001,-766.4132"/>
</g>
<!-- p17 -->
<g id="node23" class="node">
<title>p17</title>
<ellipse fill="none" stroke="#000000" cx="243" cy="-954" rx="27" ry="18"/>
<text text-anchor="middle" x="243" y="-951.6" font-family="Times,serif" font-size="8.00" fill="#000000">p17</text>
</g>
<!-- d15 -->
<g id="node24" class="node">
<title>d15</title>
<ellipse fill="none" stroke="#000000" cx="315" cy="-882" rx="27" ry="18"/>
<text text-anchor="middle" x="315" y="-879.6" font-family="Times,serif" font-size="8.00" fill="#000000">d15</text>
</g>
<!-- p17&#45;&gt;d15 -->
<g id="edge24" class="edge">
<title>p17&#45;&gt;d15</title>
<path fill="none" stroke="#000000" d="M258.2693,-938.7307C268.197,-928.803 281.3153,-915.6847 292.4363,-904.5637"/>
<polygon fill="#000000" stroke="#000000" points="295.1564,-906.7933 299.7527,-897.2473 290.2067,-901.8436 295.1564,-906.7933"/>
</g>
<!-- d15&#45;&gt;p16 -->
<g id="edge25" class="edge">
<title>d15&#45;&gt;p16</title>
<path fill="none" stroke="#000000" d="M315,-863.8314C315,-856.131 315,-846.9743 315,-838.4166"/>
<polygon fill="#000000" stroke="#000000" points="318.5001,-838.4132 315,-828.4133 311.5001,-838.4133 318.5001,-838.4132"/>
</g>
<!-- p18 -->
<g id="node25" class="node">
<title>p18</title>
<ellipse fill="none" stroke="#000000" cx="315" cy="-954" rx="27" ry="18"/>
<text text-anchor="middle" x="315" y="-951.6" font-family="Times,serif" font-size="8.00" fill="#000000">p18</text>
</g>
<!-- p18&#45;&gt;d15 -->
<g id="edge26" class="edge">
<title>p18&#45;&gt;d15</title>
<path fill="none" stroke="#000000" d="M315,-935.8314C315,-928.131 315,-918.9743 315,-910.4166"/>
<polygon fill="#000000" stroke="#000000" points="318.5001,-910.4132 315,-900.4133 311.5001,-910.4133 318.5001,-910.4132"/>
</g>
<!-- p19 -->
<g id="node26" class="node">
<title>p19</title>
<ellipse fill="none" stroke="#000000" cx="315" cy="-1098" rx="27" ry="18"/>
<text text-anchor="middle" x="315" y="-1095.6" font-family="Times,serif" font-size="8.00" fill="#000000">p19</text>
</g>
<!-- d17 -->
<g id="node27" class="node">
<title>d17</title>
<ellipse fill="none" stroke="#000000" cx="315" cy="-1026" rx="27" ry="18"/>
<text text-anchor="middle" x="315" y="-1023.6" font-family="Times,serif" font-size="8.00" fill="#000000">d17</text>
</g>
<!-- p19&#45;&gt;d17 -->
<g id="edge27" class="edge">
<title>p19&#45;&gt;d17</title>
<path fill="none" stroke="#000000" d="M315,-1079.8314C315,-1072.131 315,-1062.9743 315,-1054.4166"/>
<polygon fill="#000000" stroke="#000000" points="318.5001,-1054.4132 315,-1044.4133 311.5001,-1054.4133 318.5001,-1054.4132"/>
</g>
<!-- d17&#45;&gt;p18 -->
<g id="edge28" class="edge">
<title>d17&#45;&gt;p18</title>
<path fill="none" stroke="#000000" d="M315,-1007.8314C315,-1000.131 315,-990.9743 315,-982.4166"/>
<polygon fill="#000000" stroke="#000000" points="318.5001,-982.4132 315,-972.4133 311.5001,-982.4133 318.5001,-982.4132"/>
</g>
<!-- p20 -->
<g id="node28" class="node">
<title>p20</title>
<ellipse fill="none" stroke="#000000" cx="216" cy="-522" rx="27" ry="18"/>
<text text-anchor="middle" x="216" y="-519.6" font-family="Times,serif" font-size="8.00" fill="#000000">p20</text>
</g>
<!-- p20&#45;&gt;d7 -->
<g id="edge29" class="edge">
<title>p20&#45;&gt;d7</title>
<path fill="none" stroke="#000000" d="M231.2693,-506.7307C241.197,-496.803 254.3153,-483.6847 265.4363,-472.5637"/>
<polygon fill="#000000" stroke="#000000" points="268.1564,-474.7933 272.7527,-465.2473 263.2067,-469.8436 268.1564,-474.7933"/>
</g>
<!-- p21 -->
<g id="node29" class="node">
<title>p21</title>
<ellipse fill="none" stroke="#000000" cx="243" cy="-1098" rx="27" ry="18"/>
<text text-anchor="middle" x="243" y="-1095.6" font-family="Times,serif" font-size="8.00" fill="#000000">p21</text>
</g>
<!-- d16 -->
<g id="node30" class="node">
<title>d16</title>
<ellipse fill="none" stroke="#000000" cx="243" cy="-1026" rx="27" ry="18"/>
<text text-anchor="middle" x="243" y="-1023.6" font-family="Times,serif" font-size="8.00" fill="#000000">d16</text>
</g>
<!-- p21&#45;&gt;d16 -->
<g id="edge30" class="edge">
<title>p21&#45;&gt;d16</title>
<path fill="none" stroke="#000000" d="M243,-1079.8314C243,-1072.131 243,-1062.9743 243,-1054.4166"/>
<polygon fill="#000000" stroke="#000000" points="246.5001,-1054.4132 243,-1044.4133 239.5001,-1054.4133 246.5001,-1054.4132"/>
</g>
<!-- d16&#45;&gt;p17 -->
<g id="edge31" class="edge">
<title>d16&#45;&gt;p17</title>
<path fill="none" stroke="#000000" d="M243,-1007.8314C243,-1000.131 243,-990.9743 243,-982.4166"/>
<polygon fill="#000000" stroke="#000000" points="246.5001,-982.4132 243,-972.4133 239.5001,-982.4133 246.5001,-982.4132"/>
</g>
<!-- p22 -->
<g id="node31" class="node">
<title>p22</title>
<ellipse fill="none" stroke="#000000" cx="315" cy="-1242" rx="27" ry="18"/>
<text text-anchor="middle" x="315" y="-1239.6" font-family="Times,serif" font-size="8.00" fill="#000000">p22</text>
</g>
<!-- d18 -->
<g id="node32" class="node">
<title>d18</title>
<ellipse fill="none" stroke="#000000" cx="315" cy="-1170" rx="27" ry="18"/>
<text text-anchor="middle" x="315" y="-1167.6" font-family="Times,serif" font-size="8.00" fill="#000000">d18</text>
</g>
<!-- p22&#45;&gt;d18 -->
<g id="edge32" class="edge">
<title>p22&#45;&gt;d18</title>
<path fill="none" stroke="#000000" d="M315,-1223.8314C315,-1216.131 315,-1206.9743 315,-1198.4166"/>
<polygon fill="#000000" stroke="#000000" points="318.5001,-1198.4132 315,-1188.4133 311.5001,-1198.4133 318.5001,-1198.4132"/>
</g>
<!-- d18&#45;&gt;p19 -->
<g id="edge33" class="edge">
<title>d18&#45;&gt;p19</title>
<path fill="none" stroke="#000000" d="M315,-1151.8314C315,-1144.131 315,-1134.9743 315,-1126.4166"/>
<polygon fill="#000000" stroke="#000000" points="318.5001,-1126.4132 315,-1116.4133 311.5001,-1126.4133 318.5001,-1126.4132"/>
</g>
<!-- p25 -->
<g id="node33" class="node">
<title>p25</title>
<ellipse fill="none" stroke="#000000" cx="387" cy="-810" rx="27" ry="18"/>
<text text-anchor="middle" x="387" y="-807.6" font-family="Times,serif" font-size="8.00" fill="#000000">p25</text>
</g>
<!-- p25&#45;&gt;d9 -->
<g id="edge34" class="edge">
<title>p25&#45;&gt;d9</title>
<path fill="none" stroke="#000000" d="M371.7307,-794.7307C361.803,-784.803 348.6847,-771.6847 337.5637,-760.5637"/>
<polygon fill="#000000" stroke="#000000" points="339.7933,-757.8436 330.2473,-753.2473 334.8436,-762.7933 339.7933,-757.8436"/>
</g>
<!-- d21 -->
<g id="node34" class="node">
<title>d21</title>
<ellipse fill="none" stroke="#000000" cx="387" cy="-738" rx="27" ry="18"/>
<text text-anchor="middle" x="387" y="-735.6" font-family="Times,serif" font-size="8.00" fill="#000000">d21</text>
</g>
<!-- p25&#45;&gt;d21 -->
<g id="edge35" class="edge">
<title>p25&#45;&gt;d21</title>
<path fill="none" stroke="#000000" d="M387,-791.8314C387,-784.131 387,-774.9743 387,-766.4166"/>
<polygon fill="#000000" stroke="#000000" points="390.5001,-766.4132 387,-756.4133 383.5001,-766.4133 390.5001,-766.4132"/>
</g>
<!-- p24 -->
<g id="node52" class="node">
<title>p24</title>
<ellipse fill="none" stroke="#000000" cx="387" cy="-666" rx="27" ry="18"/>
<text text-anchor="middle" x="387" y="-663.6" font-family="Times,serif" font-size="8.00" fill="#000000">p24</text>
</g>
<!-- d21&#45;&gt;p24 -->
<g id="edge36" class="edge">
<title>d21&#45;&gt;p24</title>
<path fill="none" stroke="#000000" d="M387,-719.8314C387,-712.131 387,-702.9743 387,-694.4166"/>
<polygon fill="#000000" stroke="#000000" points="390.5001,-694.4132 387,-684.4133 383.5001,-694.4133 390.5001,-694.4132"/>
</g>
<!-- p26 -->
<g id="node35" class="node">
<title>p26</title>
<ellipse fill="none" stroke="#000000" cx="387" cy="-954" rx="27" ry="18"/>
<text text-anchor="middle" x="387" y="-951.6" font-family="Times,serif" font-size="8.00" fill="#000000">p26</text>
</g>
<!-- d22 -->
<g id="node36" class="node">
<title>d22</title>
<ellipse fill="none" stroke="#000000" cx="387" cy="-882" rx="27" ry="18"/>
<text text-anchor="middle" x="387" y="-879.6" font-family="Times,serif" font-size="8.00" fill="#000000">d22</text>
</g>
<!-- p26&#45;&gt;d22 -->
<g id="edge37" class="edge">
<title>p26&#45;&gt;d22</title>
<path fill="none" stroke="#000000" d="M387,-935.8314C387,-928.131 387,-918.9743 387,-910.4166"/>
<polygon fill="#000000" stroke="#000000" points="390.5001,-910.4132 387,-900.4133 383.5001,-910.4133 390.5001,-910.4132"/>
</g>
<!-- d22&#45;&gt;p25 -->
<g id="edge38" class="edge">
<title>d22&#45;&gt;p25</title>
<path fill="none" stroke="#000000" d="M387,-863.8314C387,-856.131 387,-846.9743 387,-838.4166"/>
<polygon fill="#000000" stroke="#000000" points="390.5001,-838.4132 387,-828.4133 383.5001,-838.4133 390.5001,-838.4132"/>
</g>
<!-- p28 -->
<g id="node37" class="node">
<title>p28</title>
<ellipse fill="none" stroke="#000000" cx="459" cy="-810" rx="27" ry="18"/>
<text text-anchor="middle" x="459" y="-807.6" font-family="Times,serif" font-size="8.00" fill="#000000">p28</text>
</g>
<!-- p28&#45;&gt;d9 -->
<g id="edge39" class="edge">
<title>p28&#45;&gt;d9</title>
<path fill="none" stroke="#000000" d="M437.1295,-799.0647C412.7778,-786.8889 373.238,-767.119 345.7715,-753.3858"/>
<polygon fill="#000000" stroke="#000000" points="347.114,-750.1439 336.6045,-748.8022 343.9835,-756.4049 347.114,-750.1439"/>
</g>
<!-- d24 -->
<g id="node38" class="node">
<title>d24</title>
<ellipse fill="none" stroke="#000000" cx="459" cy="-738" rx="27" ry="18"/>
<text text-anchor="middle" x="459" y="-735.6" font-family="Times,serif" font-size="8.00" fill="#000000">d24</text>
</g>
<!-- p28&#45;&gt;d24 -->
<g id="edge40" class="edge">
<title>p28&#45;&gt;d24</title>
<path fill="none" stroke="#000000" d="M459,-791.8314C459,-784.131 459,-774.9743 459,-766.4166"/>
<polygon fill="#000000" stroke="#000000" points="462.5001,-766.4132 459,-756.4133 455.5001,-766.4133 462.5001,-766.4132"/>
</g>
<!-- p27 -->
<g id="node54" class="node">
<title>p27</title>
<ellipse fill="none" stroke="#000000" cx="459" cy="-666" rx="27" ry="18"/>
<text text-anchor="middle" x="459" y="-663.6" font-family="Times,serif" font-size="8.00" fill="#000000">p27</text>
</g>
<!-- d24&#45;&gt;p27 -->
<g id="edge41" class="edge">
<title>d24&#45;&gt;p27</title>
<path fill="none" stroke="#000000" d="M459,-719.8314C459,-712.131 459,-702.9743 459,-694.4166"/>
<polygon fill="#000000" stroke="#000000" points="462.5001,-694.4132 459,-684.4133 455.5001,-694.4133 462.5001,-694.4132"/>
</g>
<!-- p29 -->
<g id="node39" class="node">
<title>p29</title>
<ellipse fill="none" stroke="#000000" cx="459" cy="-954" rx="27" ry="18"/>
<text text-anchor="middle" x="459" y="-951.6" font-family="Times,serif" font-size="8.00" fill="#000000">p29</text>
</g>
<!-- d25 -->
<g id="node40" class="node">
<title>d25</title>
<ellipse fill="none" stroke="#000000" cx="459" cy="-882" rx="27" ry="18"/>
<text text-anchor="middle" x="459" y="-879.6" font-family="Times,serif" font-size="8.00" fill="#000000">d25</text>
</g>
<!-- p29&#45;&gt;d25 -->
<g id="edge42" class="edge">
<title>p29&#45;&gt;d25</title>
<path fill="none" stroke="#000000" d="M459,-935.8314C459,-928.131 459,-918.9743 459,-910.4166"/>
<polygon fill="#000000" stroke="#000000" points="462.5001,-910.4132 459,-900.4133 455.5001,-910.4133 462.5001,-910.4132"/>
</g>
<!-- d25&#45;&gt;p28 -->
<g id="edge43" class="edge">
<title>d25&#45;&gt;p28</title>
<path fill="none" stroke="#000000" d="M459,-863.8314C459,-856.131 459,-846.9743 459,-838.4166"/>
<polygon fill="#000000" stroke="#000000" points="462.5001,-838.4132 459,-828.4133 455.5001,-838.4133 462.5001,-838.4132"/>
</g>
<!-- p31 -->
<g id="node41" class="node">
<title>p31</title>
<ellipse fill="none" stroke="#000000" cx="531" cy="-810" rx="27" ry="18"/>
<text text-anchor="middle" x="531" y="-807.6" font-family="Times,serif" font-size="8.00" fill="#000000">p31</text>
</g>
<!-- p31&#45;&gt;d9 -->
<g id="edge44" class="edge">
<title>p31&#45;&gt;d9</title>
<path fill="none" stroke="#000000" d="M510.022,-798.5501C505.1771,-796.1775 499.9808,-793.8425 495,-792 433.128,-769.1121 412.872,-778.8879 351,-756 349.1322,-755.3091 347.2341,-754.5489 345.3356,-753.7434"/>
<polygon fill="#000000" stroke="#000000" points="346.5266,-750.4391 335.978,-749.4499 343.6074,-756.8014 346.5266,-750.4391"/>
</g>
<!-- d27 -->
<g id="node42" class="node">
<title>d27</title>
<ellipse fill="none" stroke="#000000" cx="531" cy="-738" rx="27" ry="18"/>
<text text-anchor="middle" x="531" y="-735.6" font-family="Times,serif" font-size="8.00" fill="#000000">d27</text>
</g>
<!-- p31&#45;&gt;d27 -->
<g id="edge45" class="edge">
<title>p31&#45;&gt;d27</title>
<path fill="none" stroke="#000000" d="M531,-791.8314C531,-784.131 531,-774.9743 531,-766.4166"/>
<polygon fill="#000000" stroke="#000000" points="534.5001,-766.4132 531,-756.4133 527.5001,-766.4133 534.5001,-766.4132"/>
</g>
<!-- p30 -->
<g id="node56" class="node">
<title>p30</title>
<ellipse fill="none" stroke="#000000" cx="531" cy="-666" rx="27" ry="18"/>
<text text-anchor="middle" x="531" y="-663.6" font-family="Times,serif" font-size="8.00" fill="#000000">p30</text>
</g>
<!-- d27&#45;&gt;p30 -->
<g id="edge46" class="edge">
<title>d27&#45;&gt;p30</title>
<path fill="none" stroke="#000000" d="M531,-719.8314C531,-712.131 531,-702.9743 531,-694.4166"/>
<polygon fill="#000000" stroke="#000000" points="534.5001,-694.4132 531,-684.4133 527.5001,-694.4133 534.5001,-694.4132"/>
</g>
<!-- p32 -->
<g id="node43" class="node">
<title>p32</title>
<ellipse fill="none" stroke="#000000" cx="531" cy="-954" rx="27" ry="18"/>
<text text-anchor="middle" x="531" y="-951.6" font-family="Times,serif" font-size="8.00" fill="#000000">p32</text>
</g>
<!-- d28 -->
<g id="node44" class="node">
<title>d28</title>
<ellipse fill="none" stroke="#000000" cx="531" cy="-882" rx="27" ry="18"/>
<text text-anchor="middle" x="531" y="-879.6" font-family="Times,serif" font-size="8.00" fill="#000000">d28</text>
</g>
<!-- p32&#45;&gt;d28 -->
<g id="edge47" class="edge">
<title>p32&#45;&gt;d28</title>
<path fill="none" stroke="#000000" d="M531,-935.8314C531,-928.131 531,-918.9743 531,-910.4166"/>
<polygon fill="#000000" stroke="#000000" points="534.5001,-910.4132 531,-900.4133 527.5001,-910.4133 534.5001,-910.4132"/>
</g>
<!-- d28&#45;&gt;p31 -->
<g id="edge48" class="edge">
<title>d28&#45;&gt;p31</title>
<path fill="none" stroke="#000000" d="M531,-863.8314C531,-856.131 531,-846.9743 531,-838.4166"/>
<polygon fill="#000000" stroke="#000000" points="534.5001,-838.4132 531,-828.4133 527.5001,-838.4133 534.5001,-838.4132"/>
</g>
<!-- d4 -->
<g id="node45" class="node">
<title>d4</title>
<ellipse fill="none" stroke="#000000" cx="387" cy="-1314" rx="27" ry="18"/>
<text text-anchor="middle" x="387" y="-1311.6" font-family="Times,serif" font-size="8.00" fill="#000000">d4</text>
</g>
<!-- d4&#45;&gt;p4 -->
<g id="edge49" class="edge">
<title>d4&#45;&gt;p4</title>
<path fill="none" stroke="#000000" d="M387,-1295.8314C387,-1288.131 387,-1278.9743 387,-1270.4166"/>
<polygon fill="#000000" stroke="#000000" points="390.5001,-1270.4132 387,-1260.4133 383.5001,-1270.4133 390.5001,-1270.4132"/>
</g>
<!-- d6 -->
<g id="node46" class="node">
<title>d6</title>
<ellipse fill="none" stroke="#000000" cx="216" cy="-450" rx="27" ry="18"/>
<text text-anchor="middle" x="216" y="-447.6" font-family="Times,serif" font-size="8.00" fill="#000000">d6</text>
</g>
<!-- d6&#45;&gt;p6 -->
<g id="edge50" class="edge">
<title>d6&#45;&gt;p6</title>
<path fill="none" stroke="#000000" d="M216,-431.8314C216,-424.131 216,-414.9743 216,-406.4166"/>
<polygon fill="#000000" stroke="#000000" points="219.5001,-406.4132 216,-396.4133 212.5001,-406.4133 219.5001,-406.4132"/>
</g>
<!-- d12 -->
<g id="node47" class="node">
<title>d12</title>
<ellipse fill="none" stroke="#000000" cx="27" cy="-1026" rx="27" ry="18"/>
<text text-anchor="middle" x="27" y="-1023.6" font-family="Times,serif" font-size="8.00" fill="#000000">d12</text>
</g>
<!-- d12&#45;&gt;p13 -->
<g id="edge51" class="edge">
<title>d12&#45;&gt;p13</title>
<path fill="none" stroke="#000000" d="M27,-1007.8314C27,-1000.131 27,-990.9743 27,-982.4166"/>
<polygon fill="#000000" stroke="#000000" points="30.5001,-982.4132 27,-972.4133 23.5001,-982.4133 30.5001,-982.4132"/>
</g>
<!-- d13 -->
<g id="node48" class="node">
<title>d13</title>
<ellipse fill="none" stroke="#000000" cx="99" cy="-1026" rx="27" ry="18"/>
<text text-anchor="middle" x="99" y="-1023.6" font-family="Times,serif" font-size="8.00" fill="#000000">d13</text>
</g>
<!-- d13&#45;&gt;p14 -->
<g id="edge52" class="edge">
<title>d13&#45;&gt;p14</title>
<path fill="none" stroke="#000000" d="M99,-1007.8314C99,-1000.131 99,-990.9743 99,-982.4166"/>
<polygon fill="#000000" stroke="#000000" points="102.5001,-982.4132 99,-972.4133 95.5001,-982.4133 102.5001,-982.4132"/>
</g>
<!-- d14 -->
<g id="node49" class="node">
<title>d14</title>
<ellipse fill="none" stroke="#000000" cx="171" cy="-1026" rx="27" ry="18"/>
<text text-anchor="middle" x="171" y="-1023.6" font-family="Times,serif" font-size="8.00" fill="#000000">d14</text>
</g>
<!-- d14&#45;&gt;p15 -->
<g id="edge53" class="edge">
<title>d14&#45;&gt;p15</title>
<path fill="none" stroke="#000000" d="M171,-1007.8314C171,-1000.131 171,-990.9743 171,-982.4166"/>
<polygon fill="#000000" stroke="#000000" points="174.5001,-982.4132 171,-972.4133 167.5001,-982.4133 174.5001,-982.4132"/>
</g>
<!-- d19 -->
<g id="node50" class="node">
<title>d19</title>
<ellipse fill="none" stroke="#000000" cx="216" cy="-594" rx="27" ry="18"/>
<text text-anchor="middle" x="216" y="-591.6" font-family="Times,serif" font-size="8.00" fill="#000000">d19</text>
</g>
<!-- d19&#45;&gt;p20 -->
<g id="edge54" class="edge">
<title>d19&#45;&gt;p20</title>
<path fill="none" stroke="#000000" d="M216,-575.8314C216,-568.131 216,-558.9743 216,-550.4166"/>
<polygon fill="#000000" stroke="#000000" points="219.5001,-550.4132 216,-540.4133 212.5001,-550.4133 219.5001,-550.4132"/>
</g>
<!-- d20 -->
<g id="node51" class="node">
<title>d20</title>
<ellipse fill="none" stroke="#000000" cx="315" cy="-1314" rx="27" ry="18"/>
<text text-anchor="middle" x="315" y="-1311.6" font-family="Times,serif" font-size="8.00" fill="#000000">d20</text>
</g>
<!-- d20&#45;&gt;p22 -->
<g id="edge55" class="edge">
<title>d20&#45;&gt;p22</title>
<path fill="none" stroke="#000000" d="M315,-1295.8314C315,-1288.131 315,-1278.9743 315,-1270.4166"/>
<polygon fill="#000000" stroke="#000000" points="318.5001,-1270.4132 315,-1260.4133 311.5001,-1270.4133 318.5001,-1270.4132"/>
</g>
<!-- d23 -->
<g id="node53" class="node">
<title>d23</title>
<ellipse fill="none" stroke="#000000" cx="387" cy="-1026" rx="27" ry="18"/>
<text text-anchor="middle" x="387" y="-1023.6" font-family="Times,serif" font-size="8.00" fill="#000000">d23</text>
</g>
<!-- d23&#45;&gt;p26 -->
<g id="edge56" class="edge">
<title>d23&#45;&gt;p26</title>
<path fill="none" stroke="#000000" d="M387,-1007.8314C387,-1000.131 387,-990.9743 387,-982.4166"/>
<polygon fill="#000000" stroke="#000000" points="390.5001,-982.4132 387,-972.4133 383.5001,-982.4133 390.5001,-982.4132"/>
</g>
<!-- d26 -->
<g id="node55" class="node">
<title>d26</title>
<ellipse fill="none" stroke="#000000" cx="459" cy="-1026" rx="27" ry="18"/>
<text text-anchor="middle" x="459" y="-1023.6" font-family="Times,serif" font-size="8.00" fill="#000000">d26</text>
</g>
<!-- d26&#45;&gt;p29 -->
<g id="edge57" class="edge">
<title>d26&#45;&gt;p29</title>
<path fill="none" stroke="#000000" d="M459,-1007.8314C459,-1000.131 459,-990.9743 459,-982.4166"/>
<polygon fill="#000000" stroke="#000000" points="462.5001,-982.4132 459,-972.4133 455.5001,-982.4133 462.5001,-982.4132"/>
</g>
<!-- d29 -->
<g id="node57" class="node">
<title>d29</title>
<ellipse fill="none" stroke="#000000" cx="531" cy="-1026" rx="27" ry="18"/>
<text text-anchor="middle" x="531" y="-1023.6" font-family="Times,serif" font-size="8.00" fill="#000000">d29</text>
</g>
<!-- d29&#45;&gt;p32 -->
<g id="edge58" class="edge">
<title>d29&#45;&gt;p32</title>
<path fill="none" stroke="#000000" d="M531,-1007.8314C531,-1000.131 531,-990.9743 531,-982.4166"/>
<polygon fill="#000000" stroke="#000000" points="534.5001,-982.4132 531,-972.4133 527.5001,-982.4133 534.5001,-982.4132"/>
</g>
</g>
</svg>
